<svg width="32" height="32" viewBox="0 0 32 32" fill="none" xmlns="http://www.w3.org/2000/svg">
<path d="M22.7326 15.2915H23.6192L23.504 16.375H22.6205L22.7326 15.2915ZM30.2175 9.21298V22.787C30.1874 23.6443 29.7517 24.4106 28.9862 24.9197L17.2307 31.7067C16.5535 32.0978 15.4452 32.0978 14.7681 31.7067L3.01256 24.9197C2.2991 24.452 1.83393 23.6977 1.78125 22.787V9.21298C1.78125 8.43098 2.33529 7.47121 3.01256 7.08026L14.7681 0.293281C15.4452 -0.0977602 16.5535 -0.0977602 17.2307 0.293281L28.9862 7.08026C29.6973 7.56031 30.19 8.39018 30.2175 9.21298ZM24.2082 20.742L20.106 18.3683C17.3696 22.7487 11.3263 20.6081 11.26 16C11.4807 11.0001 17.6294 9.53562 20.1057 13.6315L24.2079 11.2577C18.8618 2.6576 6.46493 6.7445 6.52063 16C6.75824 25.9783 19.4967 28.921 24.2082 20.742ZM25.1875 14.537H24.4842L24.611 13.3125H23.8297L23.6995 14.537H22.8107L22.9375 13.3125H22.1562L22.026 14.537H21.2812V15.2915H21.9457L21.8305 16.375H21.0625V17.1295H21.7502L21.6078 18.4688H22.4037L22.5423 17.1295H23.4237L23.2812 18.4688H24.0772L24.2158 17.1295H24.9688V16.375H24.2939L24.4061 15.2915H25.1875V14.537Z" fill="#0277BD"/>
</svg>
