<svg width="244" height="31" fill="none" xmlns="http://www.w3.org/2000/svg"><path d="M241.708 9.67c-1.21-.956-2.989-1.462-5.472-1.462-1.083 0-2.23.063-3.369.316-.767.19-1.526.57-2.229 1.083a4.02 4.02 0 0 0-1.273 1.653 5.217 5.217 0 0 0-.38 1.977v.695c-.063.19.063.317.253.317h3.052a.272.272 0 0 0 .253-.253c.063-.696.317-1.337.759-1.843.514-.569 1.463-.893 2.863-.893.64 0 1.21.063 1.779.253.379.126.767.38 1.083.64.443.443.767 1.084.767 1.716v.894c0 .316-.063.64-.19.893a2.438 2.438 0 0 1-.442.64c-.127.19-.317.317-.507.444-.126.126-.316.19-.442.253-.064.063-.317.126-.831.316-.506.19-.956.38-1.589.57-.64.189-1.273.379-1.913.632-.641.253-1.21.38-1.716.57a4.167 4.167 0 0 0-2.357 1.905 5.588 5.588 0 0 0-.822 2.862v1.969c.063.57.126 1.146.316 1.653.19.64.57 1.21 1.084 1.652.569.57 1.336 1.02 2.166 1.273 1.147.38 2.42.506 3.63.506a10.093 10.093 0 0 0 3.629-.506 6.035 6.035 0 0 0 2.23-1.273 3.602 3.602 0 0 0 1.083-1.652 4.79 4.79 0 0 0 .316-1.653v-12.47c-.015-1.447-.648-2.783-1.731-3.677Zm-2.673 17.246c-.506.506-1.526.822-2.862.822-1.337 0-2.293-.253-2.8-.759a3.379 3.379 0 0 1-.767-2.42c0-.442.064-.956.317-1.336.19-.316.443-.64.704-.893.253-.19.64-.38.956-.57.38-.19.957-.316 1.4-.506.443-.19.893-.379 1.399-.506.506-.126.957-.316 1.4-.45.253-.063.443-.19.64-.316.254-.127.38-.38.443-.641l-.063 5.219a3.446 3.446 0 0 1-.767 2.356ZM225.419 8.208h2.04c.126 0 .253.126.253.253v.063l-.704 2.673c0 .126-.126.19-.253.19h-1.399c-.633 0-1.274.063-1.843.316-.379.126-.759.38-1.083.703-.253.253-.38.506-.506.83-.063.254-.127.57-.127.83V30.61c0 .19-.126.316-.316.316h-3.052c-.127 0-.253-.127-.253-.316V13.363c0-.443.063-.893.19-1.336.126-.633.442-1.273.893-1.716.633-.633 1.336-1.147 2.167-1.463 1.257-.514 2.593-.704 3.993-.64ZM215.045 25.01v.767c0 .443-.064.957-.19 1.4-.127.633-.443 1.21-.894 1.716-.632.633-1.336 1.146-2.166 1.463-1.273.443-2.61.703-4.009.632-1.337.064-2.736-.19-4.009-.632a5.713 5.713 0 0 1-2.167-1.463c-.443-.506-.759-1.083-.893-1.716-.127-.443-.127-.893-.19-1.336V8.469c0-.19.126-.317.316-.317h2.989c.19 0 .316.127.316.317v16.154c0 .38.064.83.127 1.21.126.316.253.633.506.893.316.317.633.57 1.083.704.633.19 1.273.316 1.906.316.632 0 1.336-.063 1.969-.316.379-.126.767-.316 1.083-.632.253-.253.443-.506.506-.83.127-.38.19-.831.19-1.274V8.47c0-.19.126-.317.253-.317h3.052c.19 0 .316.127.316.317l-.094 16.542ZM194.241 0h2.989c.189 0 .316.127.316.316v30.348c0 .19-.127.316-.316.316h-2.989c-.19 0-.317-.126-.317-.316V.316c.064-.19.19-.316.317-.316ZM189.212 9.67c-1.21-.956-2.989-1.462-5.472-1.462-1.084 0-2.23.063-3.377.316-.822.19-1.589.57-2.229 1.083a4.02 4.02 0 0 0-1.273 1.653 5.217 5.217 0 0 0-.38 1.977v.759c0 .19.126.316.316.316h2.989a.272.272 0 0 0 .253-.253c.063-.704.316-1.336.759-1.842.506-.57 1.463-.894 2.863-.894.64-.063 1.21 0 1.779.19.379.126.767.38 1.083.64.451.443.767 1.084.767 1.716v.894c0 .316-.063.64-.19.893a2.438 2.438 0 0 1-.442.64c-.127.19-.317.317-.507.444-.189.126-.316.19-.442.253-.064.063-.317.126-.831.316-.506.19-.956.38-1.589.57-.633.189-1.273.379-1.906.632-.632.253-1.209.38-1.715.57a4.167 4.167 0 0 0-2.357 1.905c-.506.83-.83 1.842-.83 2.862v1.969c.063.57.126 1.146.316 1.653.19.64.57 1.21 1.084 1.652.569.57 1.336 1.02 2.166 1.273 1.147.38 2.42.506 3.622.506a10.093 10.093 0 0 0 3.629-.506 6.035 6.035 0 0 0 2.23-1.273 3.602 3.602 0 0 0 1.083-1.652 4.79 4.79 0 0 0 .316-1.653v-12.47a4.742 4.742 0 0 0-1.715-3.677Zm-2.61 17.246c-.506.506-1.463.822-2.862.822-1.4 0-2.357-.253-2.863-.759a3.379 3.379 0 0 1-.767-2.42c0-.442.127-.956.317-1.336.189-.316.45-.64.703-.893.253-.19.641-.38.957-.57.38-.19.957-.316 1.4-.506.443-.19.893-.379 1.399-.506.506-.126.957-.316 1.4-.45.253-.063.443-.19.64-.316.253-.127.38-.38.443-.641v5.219c.063.893-.19 1.724-.767 2.356Z" fill="#343233"/><path d="M58.229 22.322h8.911l-4.705-7.599-8.642 13.72h-3.946l10.525-16.464a2.476 2.476 0 0 1 2.063-1.067 2.45 2.45 0 0 1 2.032 1.044L75.025 28.45h-3.938l-1.858-3.068H60.19l-1.961-3.06Zm40.88 3.06V11.078h-3.345V26.79c0 .427.182.846.498 1.154.317.332.76.514 1.218.514h15.222l1.984-3.068H99.109v-.008ZM43.853 22.82a5.867 5.867 0 0 0 5.868-5.875 5.867 5.867 0 0 0-5.868-5.875H29.241v17.372h3.337V14.138h11.054c1.55 0 2.807 1.25 2.807 2.8 0 1.55-1.257 2.822-2.807 2.822l-9.417-.008 9.978 8.69h4.848l-6.698-5.622h1.51ZM8.69 28.45h10.098a8.67 8.67 0 0 0 8.674-8.682c0-4.8-3.867-8.69-8.674-8.69H8.69A8.69 8.69 0 0 0 0 19.768c0 4.8 3.89 8.682 8.69 8.682Zm9.868-3.06H8.911c-3.1 0-5.614-2.522-5.614-5.622a5.612 5.612 0 0 1 5.614-5.622h9.647a5.609 5.609 0 0 1 5.622 5.622c0 3.1-2.514 5.622-5.622 5.622Zm63.424 3.06h10.311l1.953-3.06H82.22a5.625 5.625 0 0 1-5.63-5.622 5.615 5.615 0 0 1 5.63-5.622H92l1.977-3.068H81.982c-4.8 0-8.698 3.89-8.698 8.69 0 4.8 3.898 8.682 8.698 8.682Zm40.841-3.06a5.617 5.617 0 0 1-5.409-4.088h14.273l1.969-3.06h-16.242a5.608 5.608 0 0 1 5.409-4.088h9.797l1.961-3.068h-11.98c-4.791 0-8.682 3.89-8.682 8.69 0 4.8 3.891 8.682 8.682 8.682h10.311l1.961-3.06h-12.05" fill="#312D2A"/><g fill="#343233"><path d="M156.278 13.213h-1.502v12.865h1.502V13.213Z"/><path d="M161.957 20.398v-1.502h-12.865v1.502h12.865Z"/></g></svg>